# xmcd CD database file
# Copyright (C) 1993-1998 Ti Kan
# 
# Track frame offsets:
# 182
# 9262
# 22432
# 32587
# 43312
# 53442
# 61490
# 70595
# 80382
# 89410
# 100535
# 111580
# 
# Disc length: 1610 seconds
# 
# Revision: 0
# Processed by: cddbd v1.4b41PL1 Copyright (c) Steve Scherf et al.
# Submitted via: SuperSonic v3.01
# 
DISCID=9606480c
DTITLE=James Burton/Ralph Mooney - Corn Pickin' and Slick Slidin'
DYEAR=1900
DGENRE=
TTITLE0=Columbus Stockade Blues
TTITLE1=I'm A Lonesome Fugitive
TTITLE2=The Texas Waltz
TTITLE3=My Elusive Dreams
TTITLE4=It's Such A Pretty World Today
TTITLE5=Corn Pickin'
TTITLE6=Moonshine
TTITLE7=Your Cheatin' Heart
TTITLE8=Laura(What's He Got That I Ain't Got)
TTITLE9=Spanish Eyes
TTITLE10=There Goes My Everything
TTITLE11=Sneaky Strings
EXTD=
EXTT0=
EXTT1=
EXTT2=
EXTT3=
EXTT4=
EXTT5=
EXTT6=
EXTT7=
EXTT8=
EXTT9=
EXTT10=
EXTT11=
PLAYORDER=
